<svg xmlns="http://www.w3.org/2000/svg" width="1374" height="2048" viewBox="0 0 1374 2048">
<path d="M 1078 642 L 634 868 L 628 897 L 610 953 L 593 991 L 557 1050 L 555 1050 L 460 912 L 416 913 L 557 1116 L 600 1051 L 633 990 L 648 955 L 666 892 L 937 753 L 981 732 L 999 721 L 1013 716 L 1014 719 L 992 761 L 972 788 L 947 814 L 931 821 L 793 900 L 715 942 L 797 914 L 801 914 L 900 879 L 908 879 L 908 883 L 891 913 L 866 940 L 851 952 L 706 1005 L 816 998 L 817 1001 L 810 1014 L 790 1040 L 716 1040 L 660 1048 L 647 1052 L 633 1075 L 805 1076 L 821 1059 L 840 1034 L 851 1016 L 865 984 L 899 958 L 914 942 L 928 923 L 949 881 L 959 846 L 982 830 L 1005 806 L 1018 788 L 1037 756 L 1056 715 L 1072 669 Z" fill="#1C2533"/>
<path d="M 1014 1180 L 994 1184 L 969 1194 L 952 1205 L 937 1219 L 924 1236 L 912 1264 L 908 1281 L 908 1309 L 912 1326 L 922 1350 L 933 1366 L 953 1385 L 969 1395 L 974 1396 L 975 1398 L 995 1405 L 1012 1408 L 1037 1408 L 1054 1405 L 1083 1393 L 1100 1381 L 1108 1372 L 1118 1356 L 1126 1332 L 1130 1309 L 1130 1284 L 1022 1285 L 1023 1317 L 1094 1318 L 1089 1335 L 1080 1349 L 1067 1362 L 1051 1371 L 1037 1375 L 1011 1375 L 994 1370 L 973 1356 L 960 1341 L 951 1324 L 947 1311 L 946 1287 L 949 1271 L 956 1255 L 975 1232 L 988 1223 L 1006 1216 L 1015 1214 L 1036 1214 L 1065 1224 L 1076 1231 L 1089 1244 L 1113 1221 L 1093 1201 L 1072 1189 L 1048 1182 Z" fill="#1C2533"/>
<path d="M 245 1186 L 316 1404 L 351 1404 L 372 1343 L 383 1305 L 385 1303 L 402 1245 L 404 1245 L 407 1250 L 428 1322 L 432 1330 L 433 1337 L 456 1404 L 490 1404 L 492 1402 L 493 1394 L 511 1345 L 523 1305 L 525 1303 L 525 1298 L 532 1281 L 542 1245 L 546 1237 L 558 1195 L 560 1193 L 560 1188 L 562 1186 L 523 1186 L 474 1351 L 471 1350 L 421 1186 L 388 1185 L 386 1187 L 386 1192 L 382 1200 L 361 1273 L 336 1350 L 332 1349 L 325 1321 L 318 1302 L 315 1287 L 300 1241 L 285 1186 Z" fill="#1C2533"/>
<path d="M 597 1185 L 596 1403 L 631 1404 L 632 1186 Z" fill="#1C2533"/>
<path d="M 683 1185 L 682 1404 L 718 1403 L 719 1251 L 721 1251 L 745 1283 L 841 1404 L 870 1404 L 871 1186 L 835 1186 L 835 1335 L 832 1336 L 775 1264 L 718 1188 L 714 1185 Z" fill="#1C2533"/>
</svg>